<svg width="256" height="256" viewBox="0 0 256 256" fill="none" xmlns="http://www.w3.org/2000/svg">
<path d="M128 0C57.308 0 0 57.308 0 128s57.308 128 128 128 128-57.308 128-128S198.692 0 128 0zm0 240c-61.856 0-112-50.144-112-112S66.144 16 128 16s112 50.144 112 112-50.144 112-112 112z" fill="#000000"/>
<path d="M128 32c53.02 0 96 42.98 96 96s-42.98 96-96 96S32 181.02 32 128 74.98 32 128 32zm0 176c44.112 0 80-35.888 80-80s-35.888-80-80-80S48 83.888 48 128s35.888 80 80 80z" fill="#000000"/>
<path d="M96 96h64v16h-48v32h40v16h-40v32h48v16H96V96z" fill="#000000"/>
</svg>

